<svg width="410" height="99" viewBox="0 0 410 99" fill="none" xmlns="http://www.w3.org/2000/svg">
<path d="M0 0H412V99H0V0Z" fill="#123052"/>
<path d="M38.9991 48.6661L63.0298 27.7508C63.5856 27.2667 64.3276 27 65.1187 27C65.9098 27 66.6517 27.2667 67.2075 27.7508L68.9772 29.2908C70.1288 30.2942 70.1288 31.925 68.9772 32.9269L38.9991 52.3148L68.9996 68.0731C69.5554 68.5572 69.8623 69.2026 69.8623 69.8908C69.8623 70.5797 69.5554 71.2251 68.9996 71.7096L67.2299 73.2492C66.6737 73.7333 65.9322 74 65.1411 74C64.35 74 63.608 73.7333 63.0522 73.2492L38.9991 52.3148C38.442 51.8292 38.136 51.1807 38.1378 50.4914C38.136 49.7994 38.442 49.1513 38.9991 48.6661Z" fill="#123052"/>
</svg>
