<svg width="54" height="54" viewBox="0 0 54 54" fill="none" xmlns="http://www.w3.org/2000/svg">
<g clip-path="url(#clip0_76_91)">
<path d="M27 38.2499C33.2132 38.2499 38.25 33.2131 38.25 26.9999C38.25 20.7867 33.2132 15.7499 27 15.7499C20.7868 15.7499 15.75 20.7867 15.75 26.9999C15.75 33.2131 20.7868 38.2499 27 38.2499Z" fill="white"/>
<path d="M51.75 24.75H49.3853C48.3277 14.1368 39.8633 5.67225 29.25 4.61475V2.25C29.25 1.008 28.2442 0 27 0C25.7558 0 24.75 1.008 24.75 2.25V4.61475C14.1368 5.67225 5.67225 14.1368 4.61475 24.75H2.25C1.00575 24.75 0 25.758 0 27C0 28.242 1.00575 29.25 2.25 29.25H4.61475C5.6745 39.8633 14.1368 48.3277 24.75 49.3853V51.75C24.75 52.992 25.7558 54 27 54C28.2442 54 29.25 52.992 29.25 51.75V49.3853C39.8633 48.3255 48.3277 39.8633 49.3853 29.25H51.75C52.9943 29.25 54 28.242 54 27C54 25.758 52.9943 24.75 51.75 24.75ZM29.2185 44.8493C29.1375 43.6815 28.1903 42.75 27 42.75C25.8097 42.75 24.8625 43.6815 24.7815 44.8493C16.632 43.8413 10.161 37.3703 9.153 29.2208C10.3207 29.1375 11.25 28.188 11.25 27C11.25 25.812 10.3207 24.8625 9.15075 24.7815C10.1587 16.632 16.6297 10.161 24.7792 9.153C24.8625 10.3185 25.8097 11.25 27 11.25C28.1903 11.25 29.1375 10.3185 29.2185 9.15075C37.368 10.1587 43.839 16.6297 44.847 24.7792C43.6792 24.8625 42.75 25.812 42.75 27C42.75 28.188 43.6793 29.1375 44.8493 29.2185C43.839 37.3703 37.3703 43.839 29.2185 44.8493Z" fill="white"/>
</g>
<defs>
<clipPath id="clip0_76_91">
<rect width="54" height="54" fill="white"/>
</clipPath>
</defs>
</svg>
