<svg width="170" height="170" viewBox="0 0 170 170" fill="none" xmlns="http://www.w3.org/2000/svg">
<path d="M148.75 70.8333C148.75 120.417 85 162.917 85 162.917C85 162.917 21.25 120.417 21.25 70.8333C21.25 53.9258 27.9665 37.7107 39.9219 25.7553C51.8774 13.7998 68.0925 7.08334 85 7.08334C101.908 7.08334 118.123 13.7998 130.078 25.7553C142.033 37.7107 148.75 53.9258 148.75 70.8333Z" stroke="white" stroke-width="4" stroke-linecap="round" stroke-linejoin="round"/>
<path d="M85 92.0834C96.7361 92.0834 106.25 82.5694 106.25 70.8333C106.25 59.0973 96.7361 49.5833 85 49.5833C73.264 49.5833 63.75 59.0973 63.75 70.8333C63.75 82.5694 73.264 92.0834 85 92.0834Z" stroke="white" stroke-width="4" stroke-linecap="round" stroke-linejoin="round"/>
</svg>
