<svg width="54" height="47" viewBox="0 0 54 47" fill="none" xmlns="http://www.w3.org/2000/svg">
<path d="M11.9991 21.6661L36.0298 0.750848C36.5856 0.266713 37.3276 0 38.1187 0C38.9098 0 39.6517 0.266713 40.2075 0.750848L41.9772 2.29075C43.1288 3.29418 43.1288 4.92502 41.9772 5.92692L21.7981 23.4903L41.9996 41.0731C42.5554 41.5572 42.8623 42.2026 42.8623 42.8908C42.8623 43.5797 42.5554 44.2251 41.9996 44.7096L40.2299 46.2492C39.6737 46.7333 38.9322 47 38.1411 47C37.35 47 36.608 46.7333 36.0522 46.2492L11.9991 25.3148C11.442 24.8292 11.136 24.1807 11.1378 23.4914C11.136 22.7994 11.442 22.1513 11.9991 21.6661Z" fill="white"/>
</svg>
