<svg width="258" height="258" viewBox="0 0 258 258" fill="none" xmlns="http://www.w3.org/2000/svg">
<g clip-path="url(#clip0_78_404)">
<path d="M129 0C57.7552 0 0 57.7552 0 129C0 200.244 57.7552 257.999 129 257.999C200.244 257.999 257.999 200.244 257.999 129C257.924 57.787 200.213 0.0761258 129 0ZM129 239.571C67.9328 239.571 18.4284 190.067 18.4284 129C18.4284 67.9328 67.9328 18.4284 129 18.4284C190.067 18.4284 239.571 67.9328 239.571 129C239.505 190.04 190.04 239.505 129 239.571Z" fill="#17D406"/>
<path d="M199.787 76.4139C196.216 72.9651 190.555 72.9651 186.985 76.4139L101.357 162.042L71.0136 131.699C67.4784 128.039 61.6448 127.938 57.9848 131.473C54.3243 135.008 54.2233 140.842 57.7586 144.502C57.8325 144.578 57.9081 144.654 57.9848 144.728L94.8421 181.585C98.44 185.183 104.273 185.183 107.871 181.585L200.014 89.4422C203.549 85.7823 203.448 79.9492 199.787 76.4139Z" fill="#17D406"/>
</g>
<defs>
<clipPath id="clip0_78_404">
<rect width="258" height="258" fill="white"/>
</clipPath>
</defs>
</svg>
